<svg xmlns="http://www.w3.org/2000/svg" width="142" height="44" viewBox="0 0 142 44">
    <defs>
        <linearGradient id="a" x1="0%" x2="310.592%" y1="50%" y2="50%">
            <stop offset="0%" stop-color="#FF5193"/>
            <stop offset="100%" stop-color="#F9A43A"/>
        </linearGradient>
        <linearGradient id="b" x1="-106.376%" x2="206.103%" y1="50%" y2="50%">
            <stop offset="0%" stop-color="#FF5193"/>
            <stop offset="100%" stop-color="#F9A43A"/>
        </linearGradient>
        <linearGradient id="c" x1="-210.385%" x2="100.011%" y1="50%" y2="50%">
            <stop offset="0%" stop-color="#FF5193"/>
            <stop offset="100%" stop-color="#F9A43A"/>
        </linearGradient>
    </defs>
    <g fill="none" fill-rule="evenodd">
        <path fill="url(#a)" fill-rule="nonzero" d="M0 2.857A2.855 2.855 0 0 1 2.853 0h20.53c12.113 0 16.384 1.452 19.33 4.403a9.518 9.518 0 0 1 2.65 7.167c0 5.09-2.696 8.54-9.976 10.055 7.03 1.25 10.6 4.154 10.6 9.993.139 2.747-.86 5.43-2.759 7.417C40.344 41.923 35.636 44 22.962 44H2.852A2.855 2.855 0 0 1 0 41.143V2.857zm15.589 16.395c0-1.052.851-1.905 1.902-1.905h6.61c3.772 0 6.594-.187 7.903-1.561a3.282 3.282 0 0 0 .873-2.452 3.126 3.126 0 0 0-.81-2.404C30.74 9.603 27.92 9.368 24.1 9.368H11.8v25.389h12.176c4.146 0 7.217-.313 8.652-1.765.66-.688 1-1.624.935-2.576a3.563 3.563 0 0 0-.935-2.639c-1.45-1.452-4.521-1.561-8.652-1.561h-6.438a1.9 1.9 0 0 1-1.95-1.968v-4.996z"/>
        <path fill="url(#b)" d="M64.57 22.515c0-1.052.838-1.905 1.872-1.905h4.142c5.677 0 7.15-.437 8.761-2.076a4.81 4.81 0 0 0 1.243-3.326 4.54 4.54 0 0 0-1.304-3.45c-1.366-1.39-2.394-1.562-8.7-1.562h-10.31v33.788H48V2.857C48 1.297 49.229.026 50.762 0h19.945C83.733 0 86.25 1.561 89.41 4.778a14 14 0 0 1 3.452 10.055c0 3.326-.752 8.104-3.728 11.117-.936.953-2.118 3.123-9.528 3.716L93 44H76.844l-11.69-13.334a2.892 2.892 0 0 1-.584-1.905v-6.246z"/>
        <path fill="url(#c)" fill-rule="nonzero" d="M96 2.857c0-.757.3-1.484.835-2.02A2.848 2.848 0 0 1 98.851 0h13.507c15.735 0 19.411 2.639 24.116 7.354A20.449 20.449 0 0 1 141.99 22a20.449 20.449 0 0 1-5.515 14.646C131.801 41.33 128.093 44 112.358 44H98.851A2.854 2.854 0 0 1 96 41.143V2.857zm12.463 31.228h3.88c10.095 0 11.388-1.452 14.02-4.09a10.6 10.6 0 0 0 2.883-7.98 10.741 10.741 0 0 0-2.867-7.962c-2.633-2.64-3.926-4.091-14.021-4.091h-3.88l-.015 24.123z"/>
    </g>
</svg>
